<svg xmlns="http://www.w3.org/2000/svg" viewBox="0 0 242.93 117.52"><defs><style>.cls-1{fill:#f7931e;}.cls-2{fill:#29abe2;}</style></defs><title>logo-color</title><g id="Layer_2" data-name="Layer 2"><g id="Layer_1-2" data-name="Layer 1"><path class="cls-1" d="M108.59,84.22V98.49h7.61v6.71H100.4v-21Z"/><path class="cls-1" d="M132.68,102.77H126l-.9,2.43h-8.48v-.81L124.74,84H134l8.09,20.41v.81h-8.48Zm-4.56-5.43h2.49l-1.26-5.28Z"/><path class="cls-1" d="M156.51,84.22A5.57,5.57,0,0,1,162,90a4,4,0,0,1-2.58,3.81c2.49,1,3.81,2.58,3.66,5.34a6.32,6.32,0,0,1-6.65,6.09H143.26v-21ZM151.45,92H153a1.09,1.09,0,0,0,0-2.19h-1.53Zm0,7.43h2a1.33,1.33,0,0,0,1.5-1.32,1.31,1.31,0,0,0-1.5-1.32h-2Z"/><path class="cls-2" d="M104.87,77.35V62.93H100.4V56.37h17.12v6.56h-4.47V77.35Z"/><path class="cls-2" d="M126.87,56.37v7h3.75v-7h8.15v21h-8.15V70h-3.75v7.31h-8.18v-21Z"/><path class="cls-2" d="M150.1,71.08a1.35,1.35,0,0,0,1.5-1.32V56.37h8.18V69.8c0,5.46-4.77,8-9.65,8s-9.65-2.52-9.68-8V56.37h8.21v13.4A1.36,1.36,0,0,0,150.1,71.08Z"/><path class="cls-2" d="M169.37,73.72v3.63h-8.18v-21H168l5.76,8.24-.51-4.41V56.37h8.12v21h-6.83l-5.82-8.27Z"/><path class="cls-2" d="M192.39,56.37c6.15,0,11.81,2.52,11.81,10.52s-5.7,10.46-11.81,10.46h-9.8v-21Zm0,14.57c2.4,0,3.63-2,3.63-4s-1.2-4.14-3.63-4.14h-1.65v8.15Z"/><path class="cls-2" d="M205.13,56.37h16.82v6.18h-8.66v1.41h8.33V69.8h-8.33v1.38h8.66v6.18H205.13Z"/><path class="cls-2" d="M231.45,71.77v5.58h-8.18v-21h9.05c5.22,0,10.28,1.47,10.28,7.73,0,3.06-1.23,5-3.09,6.12l3.42,6.48v.66h-8.24L232,71.77Zm1-6.3c1.35,0,2-.36,2-1.38s-.63-1.44-2-1.44h-1.14v2.82Z"/><path class="cls-2" d="M95.2,19.82a5.42,5.42,0,1,1-6-4.81A5.43,5.43,0,0,1,95.2,19.82Zm-8.75.94a3.38,3.38,0,1,0,3-3.72A3.38,3.38,0,0,0,86.45,20.75Z"/><path class="cls-1" d="M103.22,12.06A3.48,3.48,0,1,1,99.38,9,3.48,3.48,0,0,1,103.22,12.06Zm-4.88.52A1.43,1.43,0,1,0,99.6,11,1.43,1.43,0,0,0,98.33,12.58Z"/><path class="cls-2" d="M93.48,3.84A4.3,4.3,0,1,1,88.75,0,4.3,4.3,0,0,1,93.48,3.84ZM87,4.54a2.25,2.25,0,1,0,2-2.48A2.25,2.25,0,0,0,87,4.54Z"/><path class="cls-1" d="M63.35,42.71,72.4,32.19l5,4L68.7,47a1.11,1.11,0,0,0,.05,1.46l.43.46A36.81,36.81,0,0,1,26.83,107.8h0L23,112.61h0A42.85,42.85,0,0,0,75.11,46.44L81,39.13l2.6,2.09a1.11,1.11,0,0,0,1.56-.17l4-4.91A1.11,1.11,0,0,0,89,34.58L72.22,21.09a1.11,1.11,0,0,0-1.56.17l-4,4.91a1.11,1.11,0,0,0,.17,1.56l1.78,1.43-5.88,7.29h0a42.85,42.85,0,0,0-48.38,70l-2,6.38L20,103.23a36.81,36.81,0,0,1,17.7-65.28c11.05-1.57,21.23,3.3,21.23,3.3Z"/><path class="cls-2" d="M23,112.61h0A42.85,42.85,0,0,0,75.11,46.44L81,39.13l2.6,2.09a1.11,1.11,0,0,0,1.56-.17l4-4.91A1.11,1.11,0,0,0,89,34.58L83,29.81,77.4,36.22,68.7,47a1.11,1.11,0,0,0,.05,1.46l.43.46A36.81,36.81,0,0,1,26.83,107.8h0Z"/><polygon class="cls-1" points="73.44 36.6 26.5 83.46 36.87 83.47 14.24 117.3 61.18 70.45 50.81 70.44 73.44 36.6"/></g></g></svg>