<svg xmlns="http://www.w3.org/2000/svg" viewBox="0 0 68.6 56.48"><defs><style>.cls-1{opacity:0.3;}.cls-2{fill:#fff;}</style></defs><title>expert</title><g id="Layer_2" data-name="Layer 2"><g id="Layer_1-2" data-name="Layer 1"><g class="cls-1"><polygon class="cls-2" points="42.26 14.34 39.87 21.4 44.33 27.37 36.87 27.27 32.57 33.36 30.36 26.24 23.24 24.03 29.32 19.73 29.23 12.27 35.2 16.73 42.26 14.34"/><path class="cls-2" d="M44.56,41.37l0-4,.24-.15,3.63,1.65L47.54,35l.1-.09.1-.1,3.9.86L50,32l.15-.24,4,0-2.37-3.21.1-.26,3.91-.8-3-2.66c0-.09,0-.18,0-.27L56.48,23,53,21c0-.09,0-.18,0-.27l3.26-2.33-3.81-1.21L52.36,17l2.7-3-4-.39L51,13.38l2-3.44-4,.45-.18-.22L50.1,6.38,46.31,7.64l-.22-.18.45-4-3.44,2-.25-.12-.39-4-3,2.7-.26-.07L38,.24,35.71,3.5l-.27,0L33.47,0l-1.6,3.67-.27,0-2.66-3-.8,3.92-.26.1L24.67,2.36l0,4-.24.15L20.84,4.85l.86,3.9-.1.09-.1.1-3.9-.86,1.65,3.63L19.1,12l-4,0,2.37,3.21-.1.26-3.91.8,3,2.66,0,.27-3.67,1.6,3.48,2c0,.09,0,.18,0,.27L13,25.29l3.81,1.21.07.26-2.7,3,4,.39.12.25-2,3.44,4-.45.18.22-1.26,3.79,3.79-1.26.22.18-.45,4,3.44-2,.25.12.39,4,3-2.7.26.07,1.21,3.81,2.33-3.26.27,0,2,3.48,1.6-3.67.27,0,2.66,3,.8-3.92.26-.1Zm-.05-9.92A13.77,13.77,0,1,1,44.5,12,13.79,13.79,0,0,1,44.5,31.45Z"/><polygon class="cls-2" points="21.12 42.66 20.45 39.37 16.81 39.67 17.12 36.04 13.87 35.41 14.55 32.09 12.4 31.88 0 44.28 9.23 47.25 12.2 56.48 24.61 44.07 24.4 41.93 21.12 42.66"/><polygon class="cls-2" points="46.24 43.53 46.24 40.53 50.24 41.53 50.24 37.53 54.24 37.53 53.24 33.53 57.16 32.84 68.61 44.28 59.38 47.25 56.41 56.48 44 44.07 44.24 42.53 46.24 43.53"/></g></g></g></svg>