<svg xmlns="http://www.w3.org/2000/svg" viewBox="0 0 36.42 38.12"><defs><style>.cls-1{fill:#fff;opacity:0.3;}</style></defs><title>gear</title><g id="Layer_2" data-name="Layer 2"><g id="Layer_1-2" data-name="Layer 1"><path class="cls-1" d="M32.59,19.06A14.38,14.38,0,0,0,32,15l4.41-2.55L33,6.58,28.6,9.13a14.36,14.36,0,0,0-7-4V0H14.8V5.09a14.36,14.36,0,0,0-7,4L3.41,6.58,0,12.48,4.41,15a14.45,14.45,0,0,0,0,8.07L0,25.64l3.41,5.9L7.82,29a14.36,14.36,0,0,0,7,4v5.09h6.82V33a14.36,14.36,0,0,0,7-4L33,31.54l3.41-5.9L32,23.1A14.38,14.38,0,0,0,32.59,19.06ZM18.21,25.72a6.66,6.66,0,1,1,6.66-6.66A6.66,6.66,0,0,1,18.21,25.72Z"/></g></g></svg>