<svg xmlns="http://www.w3.org/2000/svg" viewBox="0 0 135.97 147.09"><defs><style>.cls-1,.cls-2{fill:#fff;}.cls-1{opacity:0.3;}</style></defs><title>plan</title><g id="Layer_2" data-name="Layer 2"><g id="Layer_1-2" data-name="Layer 1"><path class="cls-1" d="M127.2,31a1.69,1.69,0,0,0,2.38-.26l6-7.47a1.69,1.69,0,0,0-.26-2.38L109.87.37a1.69,1.69,0,0,0-2.38.26l-6,7.47a1.69,1.69,0,0,0,.26,2.38l2.7,2.18L95.49,23.75h0A65.19,65.19,0,0,0,21.89,130.2l-3,9.7,11.49-14.55A56,56,0,0,1,57.31,26c16.81-2.39,32.3,5,32.3,5l6.77,2.23,13.78-16,7.61,6.13L104.53,39.82a1.69,1.69,0,0,0,.08,2.22l.66.7a56,56,0,0,1-64.44,89.57h0l-5.88,7.3h0A65.19,65.19,0,0,0,114.28,39l9-11.13Z"/><path class="cls-2" d="M95.39,75.57A11.7,11.7,0,0,0,88,64.71a14.08,14.08,0,0,0-20.09-10.5,12.23,12.23,0,0,0-19.44.88,12.21,12.21,0,0,0-12.74,7.47,12.24,12.24,0,0,0-8.49,14,12.23,12.23,0,0,0,4.07,16.6,12.22,12.22,0,0,0,16.12,2.45A12.22,12.22,0,0,0,64,97.37a11.59,11.59,0,0,0,6.67,2.81l7.81,10.76a1.85,1.85,0,0,0,2.45.5l3.71-2.22a1.85,1.85,0,0,0,.88-1.83L84.14,96.69a11.67,11.67,0,0,0,9.19-14.5A11.68,11.68,0,0,0,95.39,75.57ZM82.05,93.18a1.85,1.85,0,0,0-1.84,2.1l1.51,11.39-1.21.72L73.18,97.28a1.85,1.85,0,0,0-1.5-.76,7.92,7.92,0,0,1-5.05-1.81,12.16,12.16,0,0,0,2.27-7.09H65.19A8.52,8.52,0,0,1,49.38,92l-.12-.17V82.8a1.85,1.85,0,0,0-.28-1c-2.18-3.48-7.86-5.08-8.51-5.25l-1,3.58c1.18.32,4.61,1.55,6,3.25v9A8.5,8.5,0,0,1,34,90.63a1.85,1.85,0,0,0-.53-.46,8.56,8.56,0,0,1-4.23-7.36A8.47,8.47,0,0,1,30.74,78,1.85,1.85,0,0,0,31,76.45a8.53,8.53,0,0,1,6.5-10.52,1.85,1.85,0,0,0,1.39-1.26,8.49,8.49,0,0,1,7.85-6A12.26,12.26,0,0,0,46.29,62H50a8.54,8.54,0,0,1,1-4h0a8.53,8.53,0,0,1,14.78-.4,1.85,1.85,0,0,0,2.6.58,10.37,10.37,0,0,1,16,8,1.85,1.85,0,0,0,1.37,1.67,8,8,0,0,1,5.48,10.19,11.66,11.66,0,0,0-9.23-4.54v3.71a8,8,0,0,1,7,4.22l0,0,.14.16a7.95,7.95,0,0,1-7.13,11.51Z"/><path class="cls-2" d="M58.89,65.2H55.19a7.6,7.6,0,0,0,4.89,7.09,10.13,10.13,0,0,0-1.19,4.77H62.6a6.49,6.49,0,0,1,6.48-6.48V66.87a10.14,10.14,0,0,0-6.34,2.22A3.89,3.89,0,0,1,58.89,65.2Z"/><polygon class="cls-2" points="106.55 31.6 90.22 47.9 93.83 47.9 85.95 59.67 102.28 43.37 98.67 43.37 106.55 31.6"/><polygon class="cls-2" points="52.59 102.52 39.35 112.91 41.97 113.22 35.24 121.06 48.48 110.68 45.87 110.36 52.59 102.52"/></g></g></svg>