<svg xmlns="http://www.w3.org/2000/svg" viewBox="0 0 135.97 147.09"><defs><style>.cls-1,.cls-2{fill:#fff;}.cls-2{opacity:0.3;}</style></defs><title>sale</title><g id="Layer_2" data-name="Layer 2"><g id="Layer_1-2" data-name="Layer 1"><path class="cls-1" d="M88.47,79.93a28.88,28.88,0,0,0-9.83-13.2,28.88,28.88,0,0,0-15.22-6.25,18.54,18.54,0,0,0-4.83.25,12.46,12.46,0,0,0-8.17,4.55l-.08.11h0c-.44.58-1.24,1.84-8.13,28-3.4,12.9-6.66,25.72-6.69,25.85a1.87,1.87,0,0,0,2.7,2.11c.12-.06,11.76-6.36,23.46-12.82,11.2-6.19,17.33-9.7,20.73-11.73a12.06,12.06,0,0,0,2.91-1.81,6,6,0,0,0,1.52-1.2h0l.09-.11a11.76,11.76,0,0,0,2.39-6.12A16.78,16.78,0,0,0,88.47,79.93ZM84,90.93A7.75,7.75,0,0,1,83,92c-.58.37-1.35.85-2.29,1.41-4.95,2.08-12.59.4-19.14-4.68-8.31-6.46-11.76-16-7.67-21.24a8.47,8.47,0,0,1,4.37-2.88c5-1.18,11.95.69,17.86,5.27,6.64,5.15,10.27,12.46,9.41,17.82A8,8,0,0,1,84,90.93ZM40.21,116c3-11.66,6.8-26.27,9.59-36.42A31.15,31.15,0,0,0,73.11,97.82C63.94,103,50.75,110.26,40.21,116Z"/><path class="cls-1" d="M75.66,64.82l-1.93-1.5a14.67,14.67,0,0,1,6.39-4.44c2.86-1.25,4.75-2.07,5-6.18.16-2.86-1.34-4.83-4.56-6-3.54-1.29-3.42-6.29-3.41-6.5l2.44.08-1.22,0,1.22,0s0,3.46,1.81,4.14c4.25,1.55,6.38,4.47,6.17,8.43-.31,5.62-3.43,7-6.44,8.29A12.5,12.5,0,0,0,75.66,64.82Z"/><path class="cls-1" d="M89.13,73c-.91-3.46-.84-10.92,5.89-14.37,3.92-2,4.81-5.93,4.86-8.86a8.64,8.64,0,0,1,2.39-5.15L104,46.34a6.12,6.12,0,0,0-1.69,3.48c-.07,3.6-1.19,8.43-6.19,11-6.65,3.41-4.72,11.24-4.64,11.58Z"/><path class="cls-1" d="M105.24,72a4.64,4.64,0,1,1,4-5.18A4.65,4.65,0,0,1,105.24,72Zm-.85-6.79a2.2,2.2,0,1,0,2.46,1.91A2.2,2.2,0,0,0,104.39,65.26Z"/><path class="cls-1" d="M92.74,49a3.91,3.91,0,1,1,3.39-4.37A3.91,3.91,0,0,1,92.74,49Zm-.67-5.33a1.47,1.47,0,1,0,1.64,1.27A1.47,1.47,0,0,0,92.07,43.67Z"/><path class="cls-2" d="M127.2,31a1.69,1.69,0,0,0,2.38-.26l6-7.47a1.69,1.69,0,0,0-.26-2.38L109.87.37a1.69,1.69,0,0,0-2.38.26l-6,7.47a1.69,1.69,0,0,0,.26,2.38l2.7,2.18L95.49,23.75h0A65.19,65.19,0,0,0,21.89,130.2l-3,9.7,11.49-14.55A56,56,0,0,1,57.31,26c16.81-2.39,32.3,5,32.3,5l6.77,2.23,13.78-16,7.61,6.13L104.53,39.82a1.69,1.69,0,0,0,.08,2.22l.66.7a56,56,0,0,1-64.44,89.57h0l-5.88,7.3h0A65.19,65.19,0,0,0,114.28,39l9-11.13Z"/></g></g></svg>