<svg xmlns="http://www.w3.org/2000/svg" viewBox="0 0 76.02 64.75"><defs><style>.cls-1{opacity:0.3;}.cls-2{fill:#fff;}</style></defs><title>seo</title><g id="Layer_2" data-name="Layer 2"><g id="Layer_1-2" data-name="Layer 1"><g class="cls-1"><path class="cls-2" d="M72.75,0,3.11,0A3.24,3.24,0,0,0,0,3.29L0,61.65a3.08,3.08,0,0,0,3.11,3.11l69.64,0A3.22,3.22,0,0,0,76,61.62L76,3.27A3.34,3.34,0,0,0,72.75,0ZM3.15,17.77V3.29a.55.55,0,0,1,0-.12l69.6,0a.11.11,0,0,1,.1.12V17.75Zm69.71,3V61.57h-.1l-69.61,0V20.8Z"/><circle class="cls-2" cx="11.51" cy="10.2" r="3.61"/><circle class="cls-2" cx="21.82" cy="10.2" r="3.61"/><circle class="cls-2" cx="32.13" cy="10.19" r="3.61"/></g><g class="cls-1"><rect class="cls-2" x="12.4" y="50.56" width="14" height="5" transform="translate(0.29 -0.11) rotate(0.31)"/><rect class="cls-2" x="30.92" y="42.66" width="14" height="13" transform="matrix(1, 0.01, -0.01, 1, 0.27, -0.21)"/><rect class="cls-2" x="49.45" y="31.76" width="14" height="24" transform="matrix(1, 0.01, -0.01, 1, 0.24, -0.31)"/></g></g></g></svg>