<svg xmlns="http://www.w3.org/2000/svg" viewBox="0 0 135.97 147.09"><defs><style>.cls-1,.cls-2{fill:#fff;}.cls-1{opacity:0.3;}</style></defs><title>talk</title><g id="Layer_2" data-name="Layer 2"><g id="Layer_1-2" data-name="Layer 1"><path class="cls-1" d="M127.2,31a1.69,1.69,0,0,0,2.38-.26l6-7.47a1.69,1.69,0,0,0-.26-2.38L109.87.37a1.69,1.69,0,0,0-2.38.26l-6,7.47a1.69,1.69,0,0,0,.26,2.38l2.7,2.18L95.49,23.75h0A65.19,65.19,0,0,0,21.89,130.2l-3,9.7,11.49-14.55A56,56,0,0,1,57.31,26c16.81-2.39,32.3,5,32.3,5l6.77,2.23,13.78-16,7.61,6.13L104.53,39.82a1.69,1.69,0,0,0,.08,2.22l.66.7a56,56,0,0,1-64.44,89.57h0l-5.88,7.3h0A65.19,65.19,0,0,0,114.28,39l9-11.13Z"/><polygon class="cls-2" points="75.59 69.52 62.35 79.91 64.97 80.22 58.24 88.06 71.48 77.68 68.87 77.36 75.59 69.52"/><path class="cls-2" d="M103.12,60.27c-6.19-4.12-14.38-6.4-23.07-6.4S63.17,56.15,57,60.27l-.34.23-1.6,0c-8.69,0-16.88,2.27-23.07,6.4-6.4,4.27-9.93,10-9.93,16.18,0,4.83,2.17,9.42,6.26,13.28a34.34,34.34,0,0,0,15.15,7.88,39.52,39.52,0,0,1,3,4.71c2.85,4.84,4,6.56,5.55,6.76l.3,0a2.24,2.24,0,0,0,1.42-.51c1.16-.94,1.35-2.78,1.58-6a27.58,27.58,0,0,1,.42-3.62c8.42-.12,16.34-2.38,22.35-6.39l.34-.24.88,0a27.58,27.58,0,0,1,.42,3.62c.24,3.17.43,5,1.58,6a2.24,2.24,0,0,0,1.42.51l.3,0c1.56-.21,2.7-1.92,5.55-6.76a39.52,39.52,0,0,1,3-4.71,34.34,34.34,0,0,0,15.15-7.88c4.1-3.86,6.26-8.46,6.26-13.28C113,70.29,109.52,64.54,103.12,60.27ZM77.44,95.48c-15.06-.86-26.91-9.06-26.91-19,0-4.74,2.69-9.08,7.13-12.42,15.06.86,26.91,9.06,26.91,19C84.56,87.8,81.87,92.14,77.44,95.48ZM55,102.16c-1,0-2.22.53-2.74,3a31.59,31.59,0,0,0-.43,3.8c0,.53-.09,1.21-.16,1.85-.74-1.13-1.61-2.61-2.24-3.67-2.57-4.37-3.59-5.93-4.93-6.26-11.38-2.83-19-10-19-17.85,0-10,11.86-18.17,26.93-19a17.82,17.82,0,0,0-5.39,12.43c0,6.17,3.53,11.91,9.93,16.18a39.06,39.06,0,0,0,15.53,5.8A40.94,40.94,0,0,1,55,102.16Zm35.5-7.85c-1.34.33-2.36,1.89-4.93,6.26-.62,1.06-1.5,2.54-2.24,3.67-.07-.64-.12-1.32-.16-1.85a31.59,31.59,0,0,0-.43-3.8,4.71,4.71,0,0,0-1-2.25C85.85,92.51,88,87.91,88,83.05c0-6.17-3.53-11.91-9.93-16.18a39.06,39.06,0,0,0-15.53-5.81A40.94,40.94,0,0,1,80,57.35c16.28,0,29.52,8.57,29.52,19.1C109.57,84.31,101.92,91.48,90.54,94.31Z"/></g></g></svg>