<svg xmlns="http://www.w3.org/2000/svg" viewBox="0 0 135.97 147.09"><defs><style>.cls-1,.cls-2{fill:#fff;}.cls-2{opacity:0.3;}</style></defs><title>team</title><g id="Layer_2" data-name="Layer 2"><g id="Layer_1-2" data-name="Layer 1"><path class="cls-1" d="M45.28,121.67a7.78,7.78,0,1,1,4.12-10.2A7.79,7.79,0,0,1,45.28,121.67ZM40.8,111.12a3.68,3.68,0,1,0,4.83,2A3.69,3.69,0,0,0,40.8,111.12Z"/><path class="cls-1" d="M105.56,96.09a7.78,7.78,0,1,1,4.12-10.2A7.79,7.79,0,0,1,105.56,96.09Zm-4.48-10.55a3.68,3.68,0,1,0,4.83,2A3.69,3.69,0,0,0,101.09,85.54Z"/><path class="cls-1" d="M53.11,56.32a7.78,7.78,0,1,1,4.12-10.2A7.79,7.79,0,0,1,53.11,56.32ZM48.64,45.77a3.68,3.68,0,1,0,4.83,2A3.69,3.69,0,0,0,48.64,45.77Z"/><polygon class="cls-1" points="49.39 63.67 48.41 63.48 41.02 88.45 44.67 86.47 43.37 100.71 44.35 100.9 51.74 75.93 48.09 77.92 49.39 63.67"/><polygon class="cls-1" points="73.64 61.54 73.59 65.7 61.79 57.61 61.15 58.37 79.33 77.01 79.38 72.86 91.18 80.95 91.82 80.19 73.64 61.54"/><polygon class="cls-1" points="88.96 92.22 63.94 99.44 67.58 101.45 54.88 108.03 55.25 108.96 80.26 101.73 76.62 99.72 89.33 93.14 88.96 92.22"/><path class="cls-2" d="M127.2,31a1.69,1.69,0,0,0,2.38-.26l6-7.47a1.69,1.69,0,0,0-.26-2.38L109.87.37a1.69,1.69,0,0,0-2.38.26l-6,7.47a1.69,1.69,0,0,0,.26,2.38l2.7,2.18L95.49,23.75h0A65.19,65.19,0,0,0,21.89,130.2l-3,9.7,11.49-14.55A56,56,0,0,1,57.31,26c16.81-2.39,32.3,5,32.3,5l6.77,2.23,13.78-16,7.61,6.13L104.53,39.82a1.69,1.69,0,0,0,.08,2.22l.66.7a56,56,0,0,1-64.44,89.57h0l-5.88,7.3h0A65.19,65.19,0,0,0,114.28,39l9-11.13Z"/></g></g></svg>