<svg xmlns="http://www.w3.org/2000/svg" viewBox="0 0 76.57 65.21"><defs><style>.cls-1,.cls-3{opacity:0.3;}.cls-2,.cls-3{fill:#fff;}</style></defs><title>ux</title><g id="Layer_2" data-name="Layer 2"><g id="Layer_1-2" data-name="Layer 1"><g class="cls-1"><path class="cls-2" d="M20.15,46.7V45.6a3.58,3.58,0,0,1-3.07,1.23c-3.09,0-3.92-2.33-3.89-5l0-6h3.19l0,6c0,3.13,3.62,2.71,3.63-.05l0-5.89h3.35l0,10.84Z"/><path class="cls-2" d="M31.24,37.09l.8-1.22h3.51v.32l-3.22,5,3.23,5.3v.22H32.05l-.78-1.3-1-2-1,2-.76,1.3H25V46.5l3.26-5.28-3.19-5v-.32h3.51l.78,1.22,1,1.87Z"/><path class="cls-2" d="M39.25,47.87H35.94l5.47-15.92h3.31Z"/><path class="cls-2" d="M53.92,46.79v-1.1a3.58,3.58,0,0,1-3.07,1.23c-3.09,0-3.92-2.33-3.89-5l0-6h3.19l0,6c0,3.13,3.62,2.71,3.63-.05l0-5.89h3.35l0,10.84Z"/><path class="cls-2" d="M61,31.74a1.81,1.81,0,0,1,2,1.85,1.74,1.74,0,0,1-1.83,1.76A1.81,1.81,0,1,1,61,31.74ZM59.48,36l0,10.84h3.21l0-10.84Z"/></g><path class="cls-3" d="M73.31.13,23.65,0,.1,21.9,0,61.9A3.13,3.13,0,0,0,3.12,65l70,.18a3.24,3.24,0,0,0,3.27-3.12l.15-58.67A3.36,3.36,0,0,0,73.31.13Zm-49.62,3,0,19-20.38,0h0ZM73.25,62h-.1l-70-.18.09-36.6,20.28.05a3.24,3.24,0,0,0,3.27-3.12l0-19,46.45.12a.11.11,0,0,1,.1.12Z"/></g></g></svg>